<svg width="39" height="39" fill="none" xmlns="http://www.w3.org/2000/svg">
    <path d="M18.131 21.987c.352.069.415-.104.473-.226.056-.123.225-.31.47-.427.247-.116.577-.314.706-.431.13-.118.27-.265.565-.276a.569.569 0 0 0 .537-.348c.095-.19.028-.59.093-.733.065-.14.229-.39.325-.61.098-.219.014-.2-.131-.137-.145.061-.272.112-.328.307-.057.196-.11.24-.292.374-.184.133-.317.227-.514.29-.198.063-.583.184-.8.29a8.748 8.748 0 0 0-.65.356L17.09 21.91c.278-.029.726.016 1.04.077Z" fill="#3FA9F5"/>
    <path d="M34.347 6.865c-.072.06-.125.113-.136.151-.039.136-.06.724-.197.977-.135.252-.18.737-.182.828a.809.809 0 0 1-.106.397c-.09.148-.272.363-.206.473.066.11.328.306.19.447-.139.142-.476.346-.379.555.101.21.258.594.251.75-.007.157-.102.31-.004.414a.44.44 0 0 1 .037.546c-.143.23-.846 1.218-1.278 1.58-.43.362-.829.769-.951 1.003-.123.234-.137.412-.199.494-.061.082-.24.208-.367.33-.127.123-.027.198.039.307.066.11.01.282-.094.388-.105.106-.387.258-.212.372.175.114.219.31.136.4-.083.088-.265.329-.277.418-.013.089-.42.092-.613-.04-.192-.132-.51-.341-.441-.407.068-.065.25-.16.412-.364.164-.203.144-.492.237-.525.096-.031.12-.209-.045-.322-.166-.113-.225-.227-.064-.415.162-.188.349-.553.069-.712-.28-.16-.592-.082-.952.034-.362.116-.3.2-.765.632-.466.432-.273.67-.558.977-.282.307-.258.46-.541.767-.282.308-.712.58-.85.817-.138.236.02.288.317.103.297-.184.162-.188.604-.233.444-.044.447.032.752-.108.306-.138.47-.236.602-.097.131.139.36.441.462.681.103.24.13.575.047.97-.086.394-.035.582-.264.822-.23.238-.547.36-.852.5-.305.138-.206.076-.498.231-.292.156-.352.042-.49-.157-.138-.2-.556-.122-.743.033-.185.155-.82.835-1.034.956-.211.121-.794.297-.986.496-.193.2-.231.375-.1.498.134.124.269.564-.07.728-.338.163-.536.287-.628.515-.09.229-.514.471-.771.57-.255.102-.822.294-1.026.567-.202.273-.357.507-.596.61-.239.103-.669.375-.928.4-.26.023-.467-.336-1.036-.233-.57.102-1.162.245-1.297.348-.136.101-.284.306-.448.405-.164.097-.306.26-.769.33-.46.072-.598.099-.894.268-.293.17-.55.39-.804.491-.256.1-.533.047-.657.391-.122.344-.182.773-.414.935-.233.164-.282.292-.483.325-.199.034-.244-.726-.737-.643-.494.082-.657.165-.812.099-.157-.067-.227-.107-.458-.063-.231.043-.744-.058-.905.236-.16.293-.361.326-.528.784-.17.459-.195.53.046.638.242.11.228.213.094.315-.136.102-.467.312-.56.555-.094.243-.114.39-.246.583-.132.192-.41.455-.284.533.126.077.265.262.121.318-.142.055-.442.15-.668.495-.23.345-.726.788-.943 1.044-.077.09-.152.167-.237.236A19.406 19.406 0 0 0 19.5 39C30.27 39 39 30.27 39 19.5c0-4.821-1.754-9.23-4.653-12.635Z" fill="#3FA9F5"/>
    <path d="M17.758 20.677c-.216-.03-.404.14-.49.218-.087.078-.14.026-.312-.028-.174-.053-.35.133-.4.276-.05.144-.303.124-.398.05-.095-.073-.35.027-.5.128-.15.1-.284.246-.441.406-.158.158.186.312.3.433.11.114.285.058.39.013.107-.046.325-.105.463-.157.138-.05.357-.04.615-.096.028-.006.07-.006.104-.01l1.494-1.493-.05.029c-.254.152-.561.26-.775.231Z" fill="#70CF29"/>
    <path d="M4.466 31.15c.736-.24 1.387-1.032 1.647-1.458.258-.426.917-1.278 1.333-1.823.417-.545 1.493-1.219 2.397-1.517.903-.296 1.92-.678 2.44-1.248s.483-.736.825-.89c.341-.153.788-.332.894-.519.106-.185.11-.807.635-.976.525-.168.506-.176.552-.395.046-.22-.262-.383-.426-.405-.162-.022-.629.094-.564-.063.067-.156.38-.565.782-.75.402-.185.882-.51 1.002-.72.119-.209.451-.554.853-.74.404-.184.957-.5 1.228-.613.272-.113.96-.395 1.106-.48.147-.085.696-.25.723-.547.024-.297-.211-.33.061-.668.271-.34.434-.422.675-.856.24-.432.311-.514.652-.692.34-.178 1.18-.695 1.285-.695.106-.001.349-.012.54-.318.192-.305.429-.272.617-.321.187-.05.464-.538.701-.612.235-.073.321-.362.35-.568.028-.206.138-.673.371-.731.234-.058.39-.428.448-.63.057-.203.133-.75.416-.83.281-.083.183-.036.348-.239.163-.203.301-.546.554-.75.256-.206.376-.31.445-.602.071-.291.268-1.182.64-1.687.37-.506.738-.77 1.148-1.121.41-.35.42-.77.653-1.024.23-.254.072-.412.215-.573.14-.161.16-.293.186-.38.028-.088-.098-.255.077-.442.175-.186.325-.18.484-.339.105-.106.083-.196.082-.284A19.39 19.39 0 0 0 19.5 0C8.73 0 0 8.73 0 19.5a19.41 19.41 0 0 0 4.012 11.843c.146-.074.298-.143.454-.193Z" fill="#70CF29"/>
</svg>